<svg xmlns="http://www.w3.org/2000/svg" xmlns:xlink="http://www.w3.org/1999/xlink" viewBox="0 0 900.36 429.89"><defs><style>.cls-1{fill:#1ad3d3;opacity:0.3;}.cls-2{fill:#482f93;}.cls-3{fill:url(#Gradiente_sem_nome_21);}.cls-4{fill:url(#Gradiente_sem_nome_21-2);}</style><linearGradient id="Gradiente_sem_nome_21" x1="0.36" y1="350.92" x2="396.36" y2="350.92" gradientUnits="userSpaceOnUse"><stop offset="0" stop-color="#1ad3d3" stop-opacity="0.7"/><stop offset="0.2" stop-color="#1ad3d3" stop-opacity="0.61"/><stop offset="0.73" stop-color="#1ad3d3" stop-opacity="0.39"/><stop offset="1" stop-color="#1ad3d3" stop-opacity="0.3"/></linearGradient><linearGradient id="Gradiente_sem_nome_21-2" x1="703.36" y1="375.18" x2="900.36" y2="375.18" xlink:href="#Gradiente_sem_nome_21"/></defs><title>Asset 1</title><g id="Layer_2" data-name="Layer 2"><g id="Camada_1" data-name="Camada 1"><path class="cls-1" d="M900.36,0V412c-121.82,22-223.87,19.62-287.53,14.12-158.63-13.71-227.05-58.72-383.66-63A885.81,885.81,0,0,0,0,387.16l.51-9.83Q10.13,190.39,19.77,3.42Z"/><path class="cls-2" d="M900.36,0V384c-117.83,25.17-212.25,26.8-277,23.47-2.87-.15-5.68-.3-8.44-.47-89.94-5.4-151.65-21.53-216.56-34.59-47.59-9.57-96.89-17.5-160.31-18.33-3.25-.05-6.53-.07-9.85-.08A877.33,877.33,0,0,0,.36,384V0Z"/><path class="cls-3" d="M396.36,372v.41C349,362.84,300,354.91,236.84,354.08c-3.23-.05-6.49-.07-9.79-.08A869,869,0,0,0,.36,384V318.6A1201.66,1201.66,0,0,1,143.09,322C250.36,331,336.57,352.84,396.36,372Z"/><path class="cls-4" d="M900.36,341.6V384c-83.79,25.17-150.93,26.8-197,23.47V407a278.22,278.22,0,0,0,57-5c26.47-5.1,45.37-12.75,63-20A470.64,470.64,0,0,0,900.36,341.6Z"/></g></g></svg>