<svg xmlns="http://www.w3.org/2000/svg" viewBox="0 0 16.27 22"><defs><style>.cls-1{fill:#fff;}</style></defs><title>Asset 3</title><g id="Layer_2" data-name="Layer 2"><g id="Camada_1" data-name="Camada 1"><path class="cls-1" d="M4.55,0c.08.1.18.16.18.32,0,1.92.11,3.84.17,5.77a.4.4,0,0,1-.19.41,1.94,1.94,0,0,0-.78,2.62c1.13,2.28,2.27,4.55,3.59,6.73a1.7,1.7,0,0,0,2.48.8c.13,0,.23-.09.35,0l4.88,3.85A12.34,12.34,0,0,1,11.46,22h-.92a7.1,7.1,0,0,1-4.3-2.25,25.24,25.24,0,0,1-4.06-5.09A14.16,14.16,0,0,1,.48,10,20.16,20.16,0,0,1,0,6.48a.23.23,0,0,0,0-.16v-1A.65.65,0,0,0,0,4.8V3.88A5.56,5.56,0,0,1,.25,2.54,4.33,4.33,0,0,1,3.64.09,3.56,3.56,0,0,0,4.21,0Z"/><path class="cls-1" d="M16.27,18.8l-.47,1.37-5.16-4.09,1.26-.67a.81.81,0,0,1,.89.19c.68.48,1.33,1,2,1.48.29.23.56.47.86.68a2.22,2.22,0,0,1,.63.7Z"/><path class="cls-1" d="M5.73,0c0,.11.17.08.26.11.83.32,1,.57,1,1.44,0,1.14.05,2.28.06,3.42a1.56,1.56,0,0,1-1.4,1.3c-.25,0-.21-.19-.22-.34,0-1.29-.1-2.58-.14-3.87,0-.68,0-1.37,0-2.06Z"/><path class="cls-1" d="M0,4.8a.38.38,0,0,1,0,.51Z"/></g></g></svg>