<svg xmlns="http://www.w3.org/2000/svg" viewBox="0 0 15.43 22.5"><defs><style>.cls-1{fill:#fff;}</style></defs><title>Asset 2</title><g id="Layer_2" data-name="Layer 2"><g id="Camada_1" data-name="Camada 1"><path class="cls-1" d="M7.22,0A7.75,7.75,0,0,0,0,7.57a7.61,7.61,0,0,0,1.36,4.51A44.5,44.5,0,0,1,5,18.21l1.74,3.67a1.08,1.08,0,0,0,2,0l1.66-3.49a48.6,48.6,0,0,1,3.74-6.34,7.6,7.6,0,0,0,1.34-4.33A7.71,7.71,0,0,0,7.22,0Zm.5,13.09a5.21,5.21,0,1,1,5.2-5.2A5.2,5.2,0,0,1,7.72,13.11Z"/></g></g></svg>