<svg xmlns="http://www.w3.org/2000/svg" xmlns:xlink="http://www.w3.org/1999/xlink" viewBox="0 0 640.36 429.89"><defs><style>.cls-1{fill:#1ad3d3;opacity:0.3;}.cls-2{fill:#482f93;}.cls-3{fill:url(#Gradiente_sem_nome_21);}.cls-4{fill:url(#Gradiente_sem_nome_21-2);}</style><linearGradient id="Gradiente_sem_nome_21" x1="0.36" y1="350.92" x2="283.36" y2="350.92" gradientUnits="userSpaceOnUse"><stop offset="0" stop-color="#1ad3d3" stop-opacity="0.7"/><stop offset="0.2" stop-color="#1ad3d3" stop-opacity="0.61"/><stop offset="0.73" stop-color="#1ad3d3" stop-opacity="0.39"/><stop offset="1" stop-color="#1ad3d3" stop-opacity="0.3"/></linearGradient><linearGradient id="Gradiente_sem_nome_21-2" x1="443.36" y1="375.18" x2="640.36" y2="375.18" xlink:href="#Gradiente_sem_nome_21"/></defs><title>Asset 7</title><g id="Layer_2" data-name="Layer 2"><g id="Camada_1" data-name="Camada 1"><path class="cls-1" d="M640.36,0V412c-86.64,22-159.22,19.62-204.5,14.12C323,412.44,274.38,367.43,163,363.12c-69.94-2.71-127.22,12.07-163,24l.36-9.83Q7.2,190.39,14.06,3.42Z"/><path class="cls-2" d="M640.36,0V384c-83.79,25.17-150.93,26.8-197,23.47-2-.15-4-.3-6-.47-64-5.4-107.84-21.53-154-34.59-33.84-9.57-68.9-17.5-114-18.33-2.31-.05-4.64-.07-7-.08-70-.15-126.69,16.72-162,30V0Z"/><path class="cls-3" d="M283.36,372v.41c-33.84-9.57-68.9-17.5-114-18.33-2.31-.05-4.64-.07-7-.08-70-.15-126.69,16.72-162,30V318.6a614.67,614.67,0,0,1,102,3.4A618,618,0,0,1,283.36,372Z"/><path class="cls-4" d="M640.36,341.6V384c-83.79,25.17-150.93,26.8-197,23.47V407a278.22,278.22,0,0,0,57-5c26.47-5.1,45.37-12.75,63-20A470.64,470.64,0,0,0,640.36,341.6Z"/></g></g></svg>