<svg xmlns="http://www.w3.org/2000/svg" xmlns:xlink="http://www.w3.org/1999/xlink" viewBox="0 0 1366.3 644.21"><defs><style>.cls-1{fill:#1ad3d3;opacity:0.3;}.cls-2{fill:#482f93;}.cls-3{fill:url(#Gradiente_sem_nome_21);}.cls-4{fill:url(#Gradiente_sem_nome_21-2);}</style><linearGradient id="Gradiente_sem_nome_21" x1="1366.3" y1="545" x2="1009.69" y2="545" gradientUnits="userSpaceOnUse"><stop offset="0" stop-color="#1ad3d3" stop-opacity="0.7"/><stop offset="0.2" stop-color="#1ad3d3" stop-opacity="0.61"/><stop offset="0.73" stop-color="#1ad3d3" stop-opacity="0.39"/><stop offset="1" stop-color="#1ad3d3" stop-opacity="0.3"/></linearGradient><linearGradient id="Gradiente_sem_nome_21-2" x1="0" y1="124.28" x2="598.24" y2="124.28" xlink:href="#Gradiente_sem_nome_21"/></defs><title>Asset 6</title><g id="Layer_2" data-name="Layer 2"><g id="Camada_1" data-name="Camada 1"><path class="cls-1" d="M1366.3,0V623.83c-42.66,14.88-81.06,21.1-116.33,20.32l-2.34-.06h-.81s0,0,0,0,0,0,0,0,0,0,0,0h-3.12s0,0,0,0a.06.06,0,0,1-.06,0h-.33l-1.55-.07H1239a.06.06,0,0,1-.06,0h-1.69a0,0,0,0,1,0,0s0,0-.06,0h-2a250,250,0,0,1-32.53-4.7l-1-.21-2.24-.5c-1.43-.32-2.85-.65-4.26-1-75.28-18.37-136.7-70-198.48-133.65l-.07-.08-.06-.06-.08-.08-.06-.06-.07-.07-.06-.07-.08-.08-.06-.06-.07-.07-.06-.07-.07-.07-.07-.07a.46.46,0,0,0-.07-.07l-.06-.07-.06-.06a.46.46,0,0,1-.07-.07l-.08-.08-.06-.07a.23.23,0,0,1-.07-.07l-.08-.07s0,0-.05-.07l-.07-.06-.07-.08-.06-.06a.23.23,0,0,1-.07-.07l-.07-.07-.07-.08-.07-.06-.07-.08-.07-.07,0-.06-.08-.08-.07-.07-.06-.06-.07-.08-.06-.06-.08-.08-.07-.06h0l-.06-.06h0l-.06-.06-.07-.07-.07-.07-.06-.07-.07-.07a.23.23,0,0,1-.07-.07l-.06-.06-.07-.08a.34.34,0,0,1-.06-.06l-.08-.08-.06-.06-.06-.07-.08-.08a.23.23,0,0,1-.07-.07l-.06-.06-.07-.08-.06-.06a.23.23,0,0,1-.07-.07l-.07-.07-.07-.07-.06-.07-.07-.07s-.05,0-.06-.07a.23.23,0,0,1-.07-.07.18.18,0,0,1-.07-.08l-.07-.06-.06-.06-.07-.08a.34.34,0,0,1-.06-.06l-.08-.08-.06-.06-.07-.08-.06-.06a.27.27,0,0,1-.07-.08l-.07-.06-.07-.08-.06-.06-.07-.07-.06-.07-.07-.06-.07-.08-.06-.06-.06-.07a.34.34,0,0,1-.06-.06l-.08-.09-.07-.06-.06-.06-.07-.08-.06-.06a.27.27,0,0,1-.07-.08l-.07-.06-.07-.07h0l-.06-.06-.06-.07-.08-.07-.06-.07-.07-.07-.07-.07-.06-.06-.06-.07a.6.6,0,0,1-.08-.08l-.06,0h0l-.06-.07-.07-.07a.46.46,0,0,1-.07-.07l-.06-.06-.07-.07-2-2.05,0-.05,0,0,0,0,0-.05,0,0,0,0,0,0,0,0,0,0,0-.05,0,0,0,0,0-.05,0,0,0,0,0,0,0,0-.06-.06,0,0,0,0,0-.05s0,0,0,0l0,0,0,0-.05-.05,0,0,0,0-.09-.09s0,0,0,0l0,0-.13-.13,0,0a.08.08,0,0,0,0,0l0-.05,0,0,0,0,0,0,0,0s0,0,0,0l0-.05,0,0,0,0-.05-.05,0,0a.08.08,0,0,0,0,0h0l0,0,0,0s0,0,0,0l0-.05,0,0,0,0,0,0-.05-.05,0,0,0,0-.08-.08,0,0,0,0,0,0-.08-.08,0,0,0-.05,0,0,0-.05,0,0,0,0,0-.05,0,0s0,0,0,0l0,0,0,0,0-.05,0,0,0,0,0-.05,0,0,0,0,0,0,0,0,0,0,0-.05,0,0,0,0-.05-.05,0-.05,0,0-.05-.05,0,0,0,0,0,0,0,0,0-.05,0,0,0,0,0,0-.05-.05,0,0s0,0,0-.05,0,0,0,0l0,0,0,0-2.53-2.68C795.29,290.51,595.69,3.09.3,196.41V118.83L0,90.74l.3-.06V0Z"/><path class="cls-2" d="M.3,0h1366V588.25c-39.75,14-75.86,20.33-109.27,20.33-1.46,0-2.91,0-4.36,0H1252l-1.94,0-2-.07a3.38,3.38,0,0,1-.45,0h-2.33s0,0,0,0h-2c-.49,0-1-.05-1.46-.09h-3s0,0-.07,0h-1.51a.08.08,0,0,1-.07,0h-1.34a.07.07,0,0,1-.06,0h-.06a.07.07,0,0,1-.06,0s0,0-.06,0a.11.11,0,0,1-.08,0h-.25a.08.08,0,0,1-.08,0c-.5,0-1-.07-1.49-.13s-.9-.07-1.34-.12c-.8-.07-1.61-.15-2.41-.24-1.19-.12-2.38-.25-3.56-.4l-2-.25c-.69-.08-1.38-.17-2.06-.28-.53-.06-1.06-.13-1.59-.22-1.1-.15-2.2-.31-3.3-.49l-.7-.11c-1.31-.21-2.62-.43-3.92-.66a.47.47,0,0,1-.17,0c-1.39-.24-2.78-.5-4.16-.77s-2.62-.52-3.92-.8c-1.67-.34-3.34-.71-5-1.1-1.15-.26-2.29-.54-3.44-.82l-.5-.12c-1.32-.33-2.63-.67-3.94-1s-2.43-.65-3.64-1-2.43-.69-3.64-1.06l-1.58-.47-2.6-.81q-2.48-.76-4.92-1.61c-1.24-.41-2.48-.84-3.72-1.28l-.67-.24c-1-.36-2-.73-3-1.11q-2.41-.88-4.82-1.83c-1.19-.47-2.39-.95-3.58-1.44-1.43-.57-2.85-1.17-4.27-1.77l-3.57-1.56-.32-.14c-1.17-.52-2.35-1-3.52-1.59l-.59-.28c-1.18-.54-2.35-1.09-3.52-1.65s-2.53-1.22-3.78-1.84l-.12-.06c-1.25-.62-2.49-1.24-3.73-1.88l-.21-.11c-1-.53-2.08-1.07-3.11-1.62-1.76-.92-3.52-1.87-5.26-2.84-.93-.5-1.85-1-2.77-1.53l-4-2.29c-.7-.41-1.41-.82-2.11-1.25-1.15-.67-2.3-1.35-3.44-2.05-.77-.46-1.54-.92-2.3-1.4-1-.62-2-1.25-3-1.89l-.28-.18c-1.2-.76-2.41-1.52-3.61-2.3l-3-1.94-.89-.59-3-2c-.26-.17-.52-.34-.77-.52l-3.34-2.29c-1.34-.92-2.67-1.86-4-2.8l-3.27-2.35q-1.82-1.31-3.62-2.64c-1.34-1-2.68-2-4-3l-3.2-2.43-4-3.13-3.12-2.46q-5.94-4.71-11.83-9.64l-2.76-2.31-3.18-2.72c-1.18-1-2.35-2-3.53-3s-2.35-2-3.52-3.09q-4.79-4.2-9.54-8.54c-.89-.8-1.77-1.61-2.65-2.42l-3-2.78h0l-2.34-2.18-3.5-3.29q-7-6.58-14-13.42h0q-6.36-6.21-12.71-12.59l-.07-.07-.07-.07-.06-.06-.07-.07-.07-.07-.06-.06-.08-.08-.13-.13-.07-.07-.06-.06-.08-.08-.06-.06-.07-.07-.06-.06-.07-.07-.08-.08-.06-.06a.46.46,0,0,0-.07-.07l-.07-.07-.06-.06-.08-.08-.06-.06-.07-.07-.06-.07-.07-.07a.46.46,0,0,1-.07-.07l-.07-.06-.07-.07-.07-.08,0,0-.08-.08a108846098070,108846098070,0,0,0-.14-.14l-.06-.06-.07-.07-.07-.08-.07-.06-.07-.07-.06-.07-.07-.07-.07-.06-.07-.07-.07-.08-.06-.06-.07-.06-.07-.08-.06-.06-.07-.07-.06-.07a.23.23,0,0,1-.07-.07l-.08-.07-.06-.07-.07-.06-.07-.07-.06-.07-.08-.08-.06-.06-.07-.06-.07-.08-.07-.07-.06-.06-.07-.07-.07-.07-.07-.07-.06-.06-.07-.08a.17.17,0,0,1-.06-.06l-.08-.07-.06-.06-.07-.08-.07-.06-.07-.07-.06-.07a.46.46,0,0,1-.07-.07l-.06-.06-.08-.07-.06-.07a.46.46,0,0,1-.07-.07l-.06-.06-.08-.08-.12-.12-.08-.09-.07-.06-.06-.06-.07-.07-.06-.07-.07-.07-.07-.06a.23.23,0,0,0-.07-.07l-.06-.06-.07-.08-.14-.14-.07-.07-.07-.07-.12-.12-.09-.09-.06-.06-.06-.06-.07-.07s0-.05-.06-.07l-.06-.06a.6.6,0,0,0-.08-.08l-2.13-2.17,0-.05,0,0s0,0,0,0,0,0,0,0l0,0-.08-.08,0,0,0,0-.08-.08,0,0-.19-.19,0-.05,0,0,0,0,0-.05,0,0,0,0-.16-.16-.05,0,0,0,0,0,0,0-.05,0,0,0,0,0,0,0,0,0,0-.05,0,0,0,0,0,0,0,0,0,0,0,0-.05-.05,0,0,0-.05,0,0,0,0,0,0,0,0,0,0,0,0-.05-.05,0,0,0,0-.05-.05s0,0,0,0l0,0,0,0,0,0,0,0a26188534856,26188534856,0,0,0-.08-.08l0,0,0,0,0,0,0,0,0-.05,0,0,0,0,0-.05a.08.08,0,0,1,0,0l0,0,0,0a27643453381.76,27643453381.76,0,0,0-.08-.08l0,0,0,0,0,0,0,0,0-.05,0,0,0-.05,0,0,0,0,0-.05a.08.08,0,0,1,0,0,.12.12,0,0,1-.05-.05l0,0,0-.05s0,0,0,0l0,0,0-.05-.15-.15,0-.06,0,0s0,0,0,0l0,0,0-.05,0,0,0,0,0,0,0,0,0,0-2.65-2.73c-104.16-107.11-213.67-240.9-391-304.41C463.9,102.85,304,93.16,87.56,153.46Q45.38,165.22.3,180.59V118.83L0,90.74l.3-.06Z"/><path class="cls-3" d="M1277.3,549a384.67,384.67,0,0,0,89-21v60.25c-39.75,14-75.86,20.33-109.27,20.33-1.46,0-2.91,0-4.36,0H1252c-.65,0-1.3,0-1.94,0s-1.37,0-2-.06a3.38,3.38,0,0,1-.45,0h-2.21s0,0,0,0,0,0,0,0,0,0,0,0,0,0,0,0h-2c-.49,0-1-.05-1.46-.09h-1a0,0,0,0,1,0,0h-1.94s0,0-.07,0h-.76a.07.07,0,0,1-.06,0h-.06a.08.08,0,0,1-.07,0h-.06a.08.08,0,0,1-.07,0h-.06s0,0,0,0h-.08s0,0,0,0h-.07a0,0,0,0,1-.06,0,.06.06,0,0,1-.06,0,.06.06,0,0,1-.07,0H1237a0,0,0,0,1-.06,0h-.06a.06.06,0,0,1-.07,0h-.19a0,0,0,0,1-.06,0h-.07a0,0,0,0,1-.06,0h-.06a.06.06,0,0,1-.07,0h-.06a.06.06,0,0,1-.07,0h-.07a0,0,0,0,1-.06,0H1236a.07.07,0,0,1-.06,0h-.06a.08.08,0,0,1-.07,0h-.06a.07.07,0,0,1-.06,0h-.06a.07.07,0,0,1-.06,0s0,0-.06,0a.11.11,0,0,1-.08,0h-.33c-.5,0-1-.08-1.49-.14s-.9-.07-1.34-.12c-.8-.07-1.61-.15-2.41-.24-1.19-.12-2.38-.25-3.56-.4l-2-.25c-.69-.08-1.38-.17-2.06-.28-.53-.06-1.06-.13-1.59-.22-1.1-.15-2.2-.31-3.3-.49l-.7-.11c-1.31-.21-2.62-.43-3.92-.66a.47.47,0,0,1-.17,0c-1.39-.24-2.78-.5-4.16-.77s-2.62-.52-3.92-.8c-1.67-.34-3.34-.71-5-1.1-1.15-.26-2.29-.54-3.44-.82l-.5-.12c-1.32-.33-2.63-.67-3.94-1s-2.43-.65-3.64-1-2.43-.69-3.64-1.06l-1.58-.47-2.6-.81q-2.48-.76-4.92-1.61c-1.24-.41-2.48-.84-3.72-1.28l-.67-.24c-1-.36-2-.73-3-1.11q-2.41-.88-4.82-1.83c-1.19-.47-2.39-.95-3.58-1.44-1.43-.57-2.85-1.17-4.27-1.77l-3.57-1.56-.32-.14c-1.17-.52-2.35-1-3.52-1.59l-.59-.28c-1.18-.54-2.35-1.09-3.52-1.65s-2.53-1.22-3.78-1.84l-.12-.06c-1.25-.62-2.49-1.24-3.73-1.88l-.21-.11c-1-.53-2.08-1.07-3.11-1.62-1.76-.92-3.52-1.87-5.26-2.84-.93-.5-1.85-1-2.77-1.53l-4-2.29c-.7-.41-1.41-.82-2.11-1.25-1.15-.67-2.3-1.35-3.44-2.05-.77-.46-1.54-.92-2.3-1.4-1-.62-2-1.25-3-1.89l-.28-.18c-1.2-.76-2.41-1.52-3.61-2.3l-3-1.94-.89-.59-3-2c-.26-.17-.52-.34-.77-.52l-3.34-2.29c-1.34-.92-2.67-1.86-4-2.8l-3.27-2.35q-1.82-1.31-3.62-2.64c-1.34-1-2.68-2-4-3l-3.2-2.43-4-3.13-3.12-2.46q-5.94-4.71-11.83-9.64l-2.76-2.31-3.18-2.72c-1.18-1-2.35-2-3.53-3s-2.35-2-3.52-3.09q-4.79-4.2-9.54-8.54c-.89-.8-1.77-1.61-2.65-2.42l-3-2.78h0l-2.34-2.18-3.5-3.29q-7-6.58-14-13.42c6.38,4.36,16.77,11.18,30.69,18.89a417.18,417.18,0,0,0,53.68,24.9,394.39,394.39,0,0,0,140.53,26.21h7l1.66,0h4.34l2.74-.12Q1263.55,550.54,1277.3,549Z"/><path class="cls-4" d="M598.24,151.61c-130.2-46.31-293.46-57-510.68,1.85Q45.62,164.82,1,179.69L.3,118.83,0,90.74l.3-.06a973.41,973.41,0,0,1,589.42,57.23Q594,149.76,598.24,151.61Z"/></g></g></svg>