<svg xmlns="http://www.w3.org/2000/svg" viewBox="0 0 435.39 168.39"><defs><style>.cls-1{fill:#fefefe;}</style></defs><title>Asset 1</title><g id="Layer_2" data-name="Layer 2"><g id="Camada_1" data-name="Camada 1"><path class="cls-1" d="M179.72,129.09c0-6.94-.14-13.88.06-20.81.08-2.7-.81-3.37-3.35-3.22-3.68.21-7.4,0-11.1.07a17.52,17.52,0,0,0-17.6,17.35c-.18,9.13-.12,18.27,0,27.41,0,2.34-.48,3.38-3,3.15a68,68,0,0,0-7.28,0c-1.26,0-1.95-.35-1.91-1.76.27-11-.85-22,.54-32.92,1.79-14.12,14.16-24.85,28.43-25.11,8.09-.15,16.2.07,24.29-.1,2.59-.06,3,.92,3,3.2-.09,13.76,0,27.53-.12,41.29,0,2.87.9,3.51,3.53,3.39,10.59-.46,18-7.87,18.09-18.46.07-8.79.1-17.58-.05-26.37,0-2.5.79-3,3.14-3,9.08,0,9.14-.06,9.06,8.9-.08,8.2.52,16.43-.33,24.61A29.57,29.57,0,0,1,196.57,153c-4.74.13-9.49-.08-14.22.09-2.23.08-2.71-.73-2.68-2.79C179.78,143.21,179.72,136.15,179.72,129.09Z"/><path class="cls-1" d="M370.66,8.27c0-8.25,0-8.11-8.37-8.27-3,0-3.67.91-3.62,3.72.16,10,.07,20.07.07,30.72l-2.07-1.21c-11.36-6.74-24.84-6-34.39,1.9-10.13,8.37-13.77,21.31-9.43,33.46a30.18,30.18,0,0,0,28.81,20.52c8.44,0,16.89-.17,25.33.09,3.23.12,3.74-1,3.74-3.9C370.61,59.62,370.66,34,370.66,8.27ZM358.74,74.79c0,1.24-.05,2.42-1.74,2.37-6.32-.16-12.71.61-19-.39a18.09,18.09,0,0,1-15-19.19c.58-9.13,8.15-16.66,17.1-17a17.67,17.67,0,0,1,18.3,15.82c.4,3.3.07,6.69.07,10h.26Z"/><path class="cls-1" d="M66.2,58.83c0,8.91-.06,17.82,0,26.73,0,2.2-.5,3.17-2.86,3a32.52,32.52,0,0,0-6.24,0c-2.58.27-3-.86-3-3.17.1-13.88,0-27.76.1-41.65,0-2.35-.54-3.17-3-3.16-8.16,0-8.16-.08-8.16,8,0,12.26-.06,24.52.05,36.79,0,2.43-.65,3.11-3.09,3.1-8.88,0-8.88.06-8.88-8.72,0-12-.09-24.06.07-36.09,0-2.84-1-3.32-3.44-2.95A17.93,17.93,0,0,0,12.35,58.15c-.14,9-.15,18.05,0,27.07.05,2.65-.76,3.28-3.32,3.25-8.91-.09-9,0-8.89-9C.27,71-.49,62.53.59,54.13A29.53,29.53,0,0,1,28.84,28.72c11.56-.2,23.14,0,34.71-.1,2.18,0,2.71.73,2.69,2.79C66.15,40.55,66.2,49.69,66.2,58.83Z"/><path class="cls-1" d="M305.44,38.13c0-9,0-9-9.06-8.88-2.35,0-3.14.77-2.86,3a17.33,17.33,0,0,1,0,2.18c-.53,0-.65.09-.74.05-.79-.44-1.58-.93-2.39-1.37a30,30,0,0,0-44.54,29.46c1.53,14.71,14.5,26.42,29.5,26.56,8.93.07,17.83-.12,26.72.07,2.84.07,3.44-.84,3.42-3.51C305.39,69.82,305.44,54,305.44,38.13Zm-11.87,36.5c.07,1.77-.51,2.53-2.35,2.51-5.67-.14-11.34.16-17-.3-10.09-.88-17.17-9.13-16.5-18.71a18,18,0,0,1,18.12-16.91c9.62.14,17.27,7.83,17.66,17.82.09,2.53,0,5.09,0,7.62S293.47,72,293.57,74.63Z"/><path class="cls-1" d="M15.72,116.77c1.19.63,2.47.31,3.7.31,14.69,0,29.39.07,44.08,0,2.49,0,3.22.57,3.4,3.22,1.42,20-15.69,32.15-31.38,32.68-5.2.17-10.42,0-15.62.09-2.15.06-2.71-.66-2.75-2.76C17,141,16.92,141,26.2,141a72.8,72.8,0,0,0,11.43-.42A18.4,18.4,0,0,0,52,129.6c-1.15-.62-2.42-.36-3.61-.36-14.58,0-29.16-.09-43.73,0-2.91,0-3.81-.58-4-3.76-1-19.25,15.71-32.07,31.49-32.3,5.21-.08,10.42,0,15.62-.07,2,0,2.83.37,2.87,2.63.19,9.32.28,9.27-9,9.35-4.37,0-8.78-.49-13.12.64C22.39,107.37,17.33,111.67,15.72,116.77Z"/><path class="cls-1" d="M113.08,89.12c-5-.34-11,.57-17-.54C80.41,85.66,69.7,70.7,71.57,54.24c1.72-15.18,15.49-26.41,31.5-25.69,15.43.69,27.68,13.49,28.1,29.38.22,8.32.22,8.32-8.19,8.32-6.48,0-13-.07-19.44,0-2.17,0-3-.48-3-2.85-.07-9.18-.16-9.18,9.12-9.18,2.08,0,4.18-.16,6.25,0,2.88.27,2.69-1,1.86-3a17.92,17.92,0,0,0-33.71,2.12C80.9,64.91,88.18,76,100.09,76.8c9.21.64,18.5.33,27.75.26,2.46,0,3.43.47,3.4,3.21-.06,8.85.06,8.85-8.79,8.85Z"/><path class="cls-1" d="M112.41,153c-4.87-.31-10.79.56-16.64-.52-15-2.77-26.27-17.64-24.73-32.61C72.72,103.57,85.6,92,101.67,92.38c15.74.36,28,12.38,29,28.39.58,9.37.58,9.37-8.8,9.37-6.25,0-12.49-.07-18.74,0-2.12,0-3-.37-3-2.81-.06-9.23-.16-9.23,9.09-9.23,1.85,0,3.7,0,5.55,0,3.78,0,3.94-.31,2.23-3.86a17.87,17.87,0,0,0-33.84,9.2c.45,8.91,6.48,16.15,14.85,17.08,9.21,1,18.49.22,27.73.4,5.81.11,5-.72,5,4.9.05,7.14,0,7.14-7.27,7.14Z"/><path class="cls-1" d="M387.36,117.11h6.94c12.26,0,24.51,0,36.77,0,1.8,0,2.91,0,3,2.48C434.8,139.71,422.14,153,402,153c-3.47,0-6.94-.11-10.4,0-2,.08-2.51-.66-2.58-2.58-.33-9.5-.38-9.48,9.17-9.5a55.18,55.18,0,0,0,9.35-.38c6.16-1.07,11.41-5.51,12.94-11.05-1.2-.6-2.48-.3-3.72-.31-13.06,0-26.13-.08-39.2,0-2.56,0-3.31-.65-3.32-3.28-.05-16.88,9-29.21,24.13-32.24,6.39-1.28,12.92-.35,19.38-.55,1.22,0,1.64.61,1.56,1.73,0,.23,0,.46,0,.69.42,9.5.42,9.46-9.08,9.52-3.57,0-7.18-.46-10.69.63A18,18,0,0,0,387.36,117.11Z"/><path class="cls-1" d="M405.65,28.51c-17-.05-30,13.13-30.07,30.51s13.06,30.83,29.81,30.85c16.5,0,29.91-13.59,30-30.43C435.48,42.17,422.38,28.56,405.65,28.51Zm-.44,49.58c-10.36-.09-17.87-8-17.87-18.91S395.2,40,405.49,40s18.14,8.42,18.1,19.22S415.69,78.16,405.21,78.09Z"/><path class="cls-1" d="M341.2,92.38c-17-.3-30.16,12.71-30.56,30.18-.39,16.92,12.78,31,29.23,31.21,16.92.25,30.21-13,30.46-30.25S357.93,92.68,341.2,92.38ZM340.41,142c-10.29,0-18-8.08-18.06-18.82S330.3,104,340.52,104s18.27,8.44,18.27,19.12S350.86,142,340.41,142Z"/><path class="cls-1" d="M288.62,153c-5.19-.33-11.46.61-17.65-.64-14.38-2.88-24.74-16.81-23.93-32.2.73-14,12.12-26.21,25.74-27.57,15.81-1.58,29.32,7.58,33,22.4,1.82,7.32,1.82,7.32-5.46,7.32a21.3,21.3,0,0,0-2.77,0c-2.23.31-2.89-.61-3.2-2.82a17.79,17.79,0,0,0-35.37,2c-.35,10,5.93,18.17,15.33,19.1,9.56.95,19.18.31,28.78.28,2.84,0,3.73.71,3.68,3.64-.17,8.46,0,8.47-8.45,8.47Z"/><path class="cls-1" d="M223,89.12c-5.1-.32-11.24.57-17.33-.63-14-2.76-25.2-17.15-24.27-31.39,1-15.25,12.48-27.44,26.82-28.47,16-1.16,29.2,8.49,32.39,23.71.1.45.19.91.25,1.36.63,4.64.56,4.72-4,4.73h-1.39c-1.85,0-3.95.47-5.48-.25-1.74-.81-1-3.3-1.53-5a18.11,18.11,0,0,0-20.3-12.52,17.78,17.78,0,0,0-14.6,18.09c.14,9.63,6.3,17.08,15.39,18,9.45,1,19,.3,28.44.31,2.77,0,3.81.56,3.76,3.58-.15,8.49,0,8.49-8.48,8.49Z"/><path class="cls-1" d="M147.92,72.23c0,4.74-.1,9.49.05,14.22.07,2.19-.71,2.69-2.78,2.72-9.23.14-9.23.2-9.23-9.06,0-7.06,0-14.11,0-21.16a29.53,29.53,0,0,1,29.48-29.63c4.27-.06,8.55.07,12.83-.05,1.88-.05,2.77.38,2.52,2.47-.37,3.05,1.32,7.15-.69,8.91-1.73,1.52-5.74.77-8.69.52-16.62-1.41-24.94,8.28-23.53,23.44C148.13,67.13,147.92,69.69,147.92,72.23Z"/><path class="cls-1" d="M241.41,123.13c0,8.91-.06,17.82.05,26.72,0,2.3-.41,3.22-3,3.22-9.12,0-9.12.08-9.12-9.18,0-15.73.05-31.47,0-47.2,0-2.54.38-3.64,3.33-3.59,8.78.14,8.78,0,8.78,8.86Z"/><path class="cls-1" d="M293.49,168.35c-3.47,0-6.93-.08-10.39,0-1.86.06-2.59-.39-2.66-2.46-.34-10-.41-10,9.63-10,4.5,0,9,.08,13.5,0,2,0,2.81.42,2.86,2.65.23,9.82.31,9.82-9.48,9.82Z"/><path class="cls-1" d="M241.42,67.36c0,5.84,0,5.84-5.73,5.84-6.35,0-6.35,0-6.35-6.26,0-5.68,0-5.68,5.56-5.68h.34C241.42,61.26,241.42,61.26,241.42,67.36Z"/></g></g></svg>